<?xml version="1.0" encoding="UTF-8"?>
<!DOCTYPE svg PUBLIC "-//W3C//DTD SVG 1.1//EN" "http://www.w3.org/Graphics/SVG/1.1/DTD/svg11.dtd">
<svg xmlns="http://www.w3.org/2000/svg" version="1.1" width="1200px" height="1200px" style="shape-rendering:geometricPrecision; text-rendering:geometricPrecision; image-rendering:optimizeQuality; fill-rule:evenodd; clip-rule:evenodd" xmlns:xlink="http://www.w3.org/1999/xlink">
<g><path style="opacity:1" fill="#000000" d="M -0.5,-0.5 C 399.5,-0.5 799.5,-0.5 1199.5,-0.5C 1199.5,399.5 1199.5,799.5 1199.5,1199.5C 799.5,1199.5 399.5,1199.5 -0.5,1199.5C -0.5,799.5 -0.5,399.5 -0.5,-0.5 Z"/></g>
<g><path style="opacity:1" fill="#0c0916" d="M 598.5,193.5 C 598.167,194.167 597.833,194.833 597.5,195.5C 589.5,202.833 581.833,210.5 574.5,218.5C 570.5,222.5 566.5,226.5 562.5,230.5C 513.738,224.478 464.571,217.478 415,209.5C 414.667,209.833 414.333,210.167 414,210.5C 412,209.833 410,209.167 408,208.5C 407.667,208.833 407.333,209.167 407,209.5C 405,208.833 403,208.167 401,207.5C 400.667,207.833 400.333,208.167 400,208.5C 398,207.833 396,207.167 394,206.5C 393.667,206.833 393.333,207.167 393,207.5C 391,206.833 389,206.167 387,205.5C 386.667,205.833 386.333,206.167 386,206.5C 384,205.833 382,205.167 380,204.5C 379.667,204.833 379.333,205.167 379,205.5C 377,204.833 375,204.167 373,203.5C 372.667,203.833 372.333,204.167 372,204.5C 370,203.833 368,203.167 366,202.5C 365.667,202.833 365.333,203.167 365,203.5C 363,202.833 361,202.167 359,201.5C 358.667,201.833 358.333,202.167 358,202.5C 341.752,199.747 325.585,197.08 309.5,194.5C 402.529,194.767 498.862,194.434 598.5,193.5 Z"/></g>
<g><path style="opacity:1" fill="#0c0916" d="M 599.5,193.5 C 698.5,193.5 797.5,193.5 896.5,193.5C 896.167,194.167 895.833,194.833 895.5,195.5C 871.167,219.167 847.167,243.167 823.5,267.5C 822.833,267.833 822.167,268.167 821.5,268.5C 763.795,259.651 706.461,251.318 649.5,243.5C 648.5,242.833 647.5,242.167 646.5,241.5C 632.833,227.167 618.833,213.167 604.5,199.5C 603.5,197.833 602.167,196.5 600.5,195.5C 600.167,194.833 599.833,194.167 599.5,193.5 Z"/></g>
<g><path style="opacity:1" fill="#18112a" d="M 304.5,194.5 C 306.167,194.5 307.833,194.5 309.5,194.5C 325.585,197.08 341.752,199.747 358,202.5C 358.333,202.167 358.667,201.833 359,201.5C 361,202.167 363,202.833 365,203.5C 365.333,203.167 365.667,202.833 366,202.5C 368,203.167 370,203.833 372,204.5C 372.333,204.167 372.667,203.833 373,203.5C 375,204.167 377,204.833 379,205.5C 379.333,205.167 379.667,204.833 380,204.5C 382,205.167 384,205.833 386,206.5C 386.333,206.167 386.667,205.833 387,205.5C 389,206.167 391,206.833 393,207.5C 393.333,207.167 393.667,206.833 394,206.5C 396,207.167 398,207.833 400,208.5C 400.333,208.167 400.667,207.833 401,207.5C 403,208.167 405,208.833 407,209.5C 407.333,209.167 407.667,208.833 408,208.5C 410,209.167 412,209.833 414,210.5C 414.333,210.167 414.667,209.833 415,209.5C 464.571,217.478 513.738,224.478 562.5,230.5C 562.5,230.833 562.5,231.167 562.5,231.5C 550.167,243.5 537.833,255.5 525.5,267.5C 451.987,244.107 378.653,220.107 305.5,195.5C 304.833,195.5 304.5,195.167 304.5,194.5 Z"/></g>
<g><path style="opacity:1" fill="#302253" d="M 304.5,194.5 C 304.5,195.167 304.833,195.5 305.5,195.5C 365.882,232.529 426.548,269.196 487.5,305.5C 475.785,317.547 464.118,329.547 452.5,341.5C 451.609,342.11 450.609,342.443 449.5,342.5C 401.701,294.201 353.701,246.035 305.5,198C 304.099,197.59 302.766,197.09 301.5,196.5C 301.351,195.448 301.517,194.448 302,193.5C 302.671,194.252 303.504,194.586 304.5,194.5 Z"/></g>
<g><path style="opacity:1" fill="#24193e" d="M 305.5,195.5 C 378.653,220.107 451.987,244.107 525.5,267.5C 512.527,279.806 499.86,292.473 487.5,305.5C 426.548,269.196 365.882,232.529 305.5,195.5 Z"/></g>
<g><path style="opacity:1" fill="#23183c" d="M 598.5,193.5 C 598.833,193.5 599.167,193.5 599.5,193.5C 599.833,194.167 600.167,194.833 600.5,195.5C 600.263,196.791 600.596,197.791 601.5,198.5C 603.689,211.099 607.022,223.266 611.5,235C 610.663,236.011 610.33,237.178 610.5,238.5C 607.312,238.968 604.145,238.302 601,236.5C 600.308,237.025 599.808,237.692 599.5,238.5C 600.077,255.788 600.077,274.121 599.5,293.5C 591.833,290.833 584.167,288.167 576.5,285.5C 580.545,268.649 584.878,251.982 589.5,235.5C 593.019,236.217 596.352,236.55 599.5,236.5C 599.829,222.99 599.496,209.656 598.5,196.5C 598.5,195.833 598.167,195.5 597.5,195.5C 597.833,194.833 598.167,194.167 598.5,193.5 Z"/></g>
<g><path style="opacity:1" fill="#6044a7" d="M 895.5,195.5 C 896.499,293.665 896.833,391.999 896.5,490.5C 880.562,475.062 864.728,459.396 849,443.5C 848.517,444.448 848.351,445.448 848.5,446.5C 847.566,445.432 847.232,444.099 847.5,442.5C 839.913,384.377 831.913,326.044 823.5,267.5C 847.167,243.167 871.167,219.167 895.5,195.5 Z"/></g>
<g><path style="opacity:1" fill="#17112a" d="M 598.5,196.5 C 599.496,209.656 599.829,222.99 599.5,236.5C 596.352,236.55 593.019,236.217 589.5,235.5C 592.658,222.534 595.658,209.534 598.5,196.5 Z"/></g>
<g><path style="opacity:1" fill="#3d2b69" d="M 301.5,196.5 C 302.766,197.09 304.099,197.59 305.5,198C 353.701,246.035 401.701,294.201 449.5,342.5C 438.22,355.448 426.22,367.781 413.5,379.5C 377.108,319.73 340.941,259.73 305,199.5C 304.617,200.056 304.117,200.389 303.5,200.5C 303.591,198.302 302.925,197.969 301.5,199.5C 301.5,198.5 301.5,197.5 301.5,196.5 Z"/></g>
<g><path style="opacity:1" fill="#2c1f4c" d="M 601.5,198.5 C 608.598,211.86 615.598,225.36 622.5,239C 622,239.5 621.5,240 621,240.5C 617.951,239.39 614.784,238.723 611.5,238.5C 613.665,248.839 616.331,258.673 619.5,268C 619.048,272.195 620.048,276.195 622.5,280C 622.043,280.414 621.709,280.914 621.5,281.5C 623.969,288.351 625.469,295.351 626,302.5C 617.271,299.202 608.438,296.202 599.5,293.5C 600.077,274.121 600.077,255.788 599.5,238.5C 599.808,237.692 600.308,237.025 601,236.5C 604.145,238.302 607.312,238.968 610.5,238.5C 610.33,237.178 610.663,236.011 611.5,235C 607.022,223.266 603.689,211.099 601.5,198.5 Z"/></g>
<g><path style="opacity:1" fill="#36265e" d="M 600.5,195.5 C 602.167,196.5 603.5,197.833 604.5,199.5C 614.738,212.968 624.738,226.635 634.5,240.5C 634.333,240.833 634.167,241.167 634,241.5C 631.26,240.718 628.426,240.218 625.5,240C 625,239.5 624.5,239 624,238.5C 623.333,239.833 623.333,241.167 624,242.5C 635.5,265.5 647,288.5 658.5,311.5C 658.167,311.833 657.833,312.167 657.5,312.5C 647.737,309.452 638.071,306.119 628.5,302.5C 628.167,303.167 627.833,303.833 627.5,304.5C 635.605,337.42 643.938,370.254 652.5,403C 650.402,402.968 648.402,402.301 646.5,401C 631.332,391.582 615.999,382.415 600.5,373.5C 599.808,378.048 599.141,382.548 598.5,387C 599.241,423.344 599.574,458.177 599.5,491.5C 599.167,491.5 598.833,491.5 598.5,491.5C 597.833,490.167 596.833,489.167 595.5,488.5C 578.414,470.15 560.748,452.483 542.5,435.5C 541.032,434.221 540.365,432.554 540.5,430.5C 547.01,403.459 553.677,376.459 560.5,349.5C 573.273,357.259 586.107,364.925 599,372.5C 599.2,368.247 599.7,364.08 600.5,360C 599.777,337.749 599.443,315.583 599.5,293.5C 608.438,296.202 617.271,299.202 626,302.5C 625.469,295.351 623.969,288.351 621.5,281.5C 621.709,280.914 622.043,280.414 622.5,280C 620.048,276.195 619.048,272.195 619.5,268C 616.331,258.673 613.665,248.839 611.5,238.5C 614.784,238.723 617.951,239.39 621,240.5C 621.5,240 622,239.5 622.5,239C 615.598,225.36 608.598,211.86 601.5,198.5C 600.596,197.791 600.263,196.791 600.5,195.5 Z"/></g>
<g><path style="opacity:1" fill="#48337b" d="M 413.5,379.5 C 400.86,391.473 388.527,403.806 376.5,416.5C 351.11,342.635 326.776,270.635 303.5,200.5C 304.117,200.389 304.617,200.056 305,199.5C 340.941,259.73 377.108,319.73 413.5,379.5 Z"/></g>
<g><path style="opacity:1" fill="#543b91" d="M 303.5,200.5 C 326.776,270.635 351.11,342.635 376.5,416.5C 364.5,429.167 352.167,441.5 339.5,453.5C 338.778,453.082 338.278,452.416 338,451.5C 326.333,369.833 314.667,288.167 303,206.5C 302.5,301.166 302.333,395.833 302.5,490.5C 302.5,491.167 302.5,491.833 302.5,492.5C 302.167,591.001 302.501,689.335 303.5,787.5C 303.167,788.167 302.833,788.833 302.5,789.5C 301.5,593.001 301.167,396.334 301.5,199.5C 302.925,197.969 303.591,198.302 303.5,200.5 Z"/></g>
<g><path style="opacity:1" fill="#6044a7" d="M 339.5,453.5 C 327.5,466.167 315.167,478.5 302.5,490.5C 302.333,395.833 302.5,301.166 303,206.5C 314.667,288.167 326.333,369.833 338,451.5C 338.278,452.416 338.778,453.082 339.5,453.5 Z"/></g>
<g><path style="opacity:1" fill="#5c419e" d="M 574.5,218.5 C 576.196,218.685 577.529,219.519 578.5,221C 576.5,223.667 574.5,226.333 572.5,229C 573.701,229.903 574.535,231.069 575,232.5C 575.974,230.122 576.641,230.456 577,233.5C 577.471,231.754 578.138,230.087 579,228.5C 579.17,230.845 578.837,233.179 578,235.5C 570.82,249.86 563.653,264.193 556.5,278.5C 550.332,277.321 544.665,275.654 539.5,273.5C 549.196,259.985 559.029,246.651 569,233.5C 569.58,230.453 569.247,230.119 568,232.5C 567.333,229.833 566.667,229.833 566,232.5C 565.667,231.833 565.333,231.167 565,230.5C 564.329,231.252 563.496,231.586 562.5,231.5C 562.5,231.167 562.5,230.833 562.5,230.5C 566.5,226.5 570.5,222.5 574.5,218.5 Z"/></g>
<g><path style="opacity:1" fill="#553c92" d="M 597.5,195.5 C 598.167,195.5 598.5,195.833 598.5,196.5C 595.658,209.534 592.658,222.534 589.5,235.5C 584.878,251.982 580.545,268.649 576.5,285.5C 571.173,306.485 565.84,327.485 560.5,348.5C 550.943,343.471 541.776,337.804 533,331.5C 532.23,332.598 531.397,332.598 530.5,331.5C 539.168,313.828 547.834,296.162 556.5,278.5C 563.653,264.193 570.82,249.86 578,235.5C 578.837,233.179 579.17,230.845 579,228.5C 578.138,230.087 577.471,231.754 577,233.5C 576.641,230.456 575.974,230.122 575,232.5C 574.535,231.069 573.701,229.903 572.5,229C 574.5,226.333 576.5,223.667 578.5,221C 577.529,219.519 576.196,218.685 574.5,218.5C 581.833,210.5 589.5,202.833 597.5,195.5 Z"/></g>
<g><path style="opacity:1" fill="#3e2c6c" d="M 604.5,199.5 C 618.833,213.167 632.833,227.167 646.5,241.5C 645.12,242.706 643.953,242.373 643,240.5C 642.333,243.167 641.667,243.167 641,240.5C 639.667,240.5 638.333,240.5 637,240.5C 635.563,242.221 636.063,243.721 638.5,245C 657.483,271.259 677.483,297.926 698.5,325C 691.705,323.84 685.205,321.673 679,318.5C 678.667,318.833 678.333,319.167 678,319.5C 674.017,317.66 670.35,315.993 667,314.5C 666.667,314.833 666.333,315.167 666,315.5C 663.985,314.158 661.818,313.658 659.5,314C 673.14,339.692 686.14,365.859 698.5,392.5C 690.833,400.833 682.833,408.833 674.5,416.5C 667.027,413.177 659.861,409.177 653,404.5C 653.148,405.825 652.982,406.992 652.5,408C 655.202,415.872 657.536,423.539 659.5,431C 639.213,450.784 619.546,470.951 600.5,491.5C 600.167,491.5 599.833,491.5 599.5,491.5C 599.574,458.177 599.241,423.344 598.5,387C 599.141,382.548 599.808,378.048 600.5,373.5C 615.999,382.415 631.332,391.582 646.5,401C 648.402,402.301 650.402,402.968 652.5,403C 643.938,370.254 635.605,337.42 627.5,304.5C 627.833,303.833 628.167,303.167 628.5,302.5C 638.071,306.119 647.737,309.452 657.5,312.5C 657.833,312.167 658.167,311.833 658.5,311.5C 647,288.5 635.5,265.5 624,242.5C 623.333,241.167 623.333,239.833 624,238.5C 624.5,239 625,239.5 625.5,240C 628.426,240.218 631.26,240.718 634,241.5C 634.167,241.167 634.333,240.833 634.5,240.5C 624.738,226.635 614.738,212.968 604.5,199.5 Z"/></g>
<g><path style="opacity:1" fill="#48337b" d="M 646.5,241.5 C 647.5,242.167 648.5,242.833 649.5,243.5C 682.167,276.5 714.833,309.5 747.5,342.5C 746.213,343.768 745.213,343.435 744.5,341.5C 743.575,342.641 742.741,342.641 742,341.5C 741.667,342.5 741.333,343.5 741,344.5C 740.527,342.221 739.527,340.221 738,338.5C 737.667,339.167 737.333,339.833 737,340.5C 735.494,337.526 733.828,337.193 732,339.5C 730.469,336.021 728.469,335.355 726,337.5C 725.667,336.5 725.333,335.5 725,334.5C 723.984,335.634 723.317,335.301 723,333.5C 722.667,334.167 722.333,334.833 722,335.5C 721.16,332.536 720.16,332.203 719,334.5C 716.528,331.159 714.528,331.159 713,334.5C 712.529,332.754 711.862,331.087 711,329.5C 710.333,333.5 709.667,333.5 709,329.5C 708.667,329.833 708.333,330.167 708,330.5C 706.867,328.789 705.367,328.289 703.5,329C 704.949,332.275 706.782,335.775 709,339.5C 709.333,338.833 709.667,338.167 710,337.5C 710.36,339.608 711.027,341.608 712,343.5C 712.667,340.833 713.333,340.833 714,343.5C 714.333,342.5 714.667,341.5 715,340.5C 715.273,342.329 716.107,343.829 717.5,345C 717.335,346.117 717.002,347.284 716.5,348.5C 719.619,350.377 721.453,352.711 722,355.5C 723.194,353.377 723.86,351.043 724,348.5C 724.236,350.764 724.736,352.931 725.5,355C 724.643,355.689 723.977,356.522 723.5,357.5C 723.846,358.696 724.346,358.696 725,357.5C 725.04,360.104 725.874,362.104 727.5,363.5C 727.5,363.833 727.5,364.167 727.5,364.5C 726.069,365.082 724.736,365.915 723.5,367C 714.935,375.062 706.935,383.562 699.5,392.5C 699.167,392.5 698.833,392.5 698.5,392.5C 686.14,365.859 673.14,339.692 659.5,314C 661.818,313.658 663.985,314.158 666,315.5C 666.333,315.167 666.667,314.833 667,314.5C 670.35,315.993 674.017,317.66 678,319.5C 678.333,319.167 678.667,318.833 679,318.5C 685.205,321.673 691.705,323.84 698.5,325C 677.483,297.926 657.483,271.259 638.5,245C 636.063,243.721 635.563,242.221 637,240.5C 638.333,240.5 639.667,240.5 641,240.5C 641.667,243.167 642.333,243.167 643,240.5C 643.953,242.373 645.12,242.706 646.5,241.5 Z"/></g>
<g><path style="opacity:1" fill="#18112a" d="M 649.5,243.5 C 706.461,251.318 763.795,259.651 821.5,268.5C 797.167,293.5 772.5,318.167 747.5,342.5C 714.833,309.5 682.167,276.5 649.5,243.5 Z"/></g>
<g><path style="opacity:1" fill="#543b90" d="M 823.5,267.5 C 831.913,326.044 839.913,384.377 847.5,442.5C 814.983,409.655 782.983,377.322 751.5,345.5C 750.686,343.727 749.352,343.227 747.5,344C 740.965,350.703 734.298,357.203 727.5,363.5C 725.874,362.104 725.04,360.104 725,357.5C 724.346,358.696 723.846,358.696 723.5,357.5C 723.977,356.522 724.643,355.689 725.5,355C 724.736,352.931 724.236,350.764 724,348.5C 723.86,351.043 723.194,353.377 722,355.5C 721.453,352.711 719.619,350.377 716.5,348.5C 717.002,347.284 717.335,346.117 717.5,345C 716.107,343.829 715.273,342.329 715,340.5C 714.667,341.5 714.333,342.5 714,343.5C 713.333,340.833 712.667,340.833 712,343.5C 711.027,341.608 710.36,339.608 710,337.5C 709.667,338.167 709.333,338.833 709,339.5C 706.782,335.775 704.949,332.275 703.5,329C 705.367,328.289 706.867,328.789 708,330.5C 708.333,330.167 708.667,329.833 709,329.5C 709.667,333.5 710.333,333.5 711,329.5C 711.862,331.087 712.529,332.754 713,334.5C 714.528,331.159 716.528,331.159 719,334.5C 720.16,332.203 721.16,332.536 722,335.5C 722.333,334.833 722.667,334.167 723,333.5C 723.317,335.301 723.984,335.634 725,334.5C 725.333,335.5 725.667,336.5 726,337.5C 728.469,335.355 730.469,336.021 732,339.5C 733.828,337.193 735.494,337.526 737,340.5C 737.333,339.833 737.667,339.167 738,338.5C 739.527,340.221 740.527,342.221 741,344.5C 741.333,343.5 741.667,342.5 742,341.5C 742.741,342.641 743.575,342.641 744.5,341.5C 745.213,343.435 746.213,343.768 747.5,342.5C 772.5,318.167 797.167,293.5 821.5,268.5C 822.167,268.167 822.833,267.833 823.5,267.5 Z"/></g>
<g><path style="opacity:1" fill="#6145a8" d="M 539.5,273.5 C 544.665,275.654 550.332,277.321 556.5,278.5C 547.834,296.162 539.168,313.828 530.5,331.5C 520.167,351.5 509.833,371.5 499.5,391.5C 489.854,382.521 480.521,373.188 471.5,363.5C 493.838,333.174 516.505,303.174 539.5,273.5 Z"/></g>
<g><path style="opacity:1" fill="#2e204f" d="M 576.5,285.5 C 584.167,288.167 591.833,290.833 599.5,293.5C 599.443,315.583 599.777,337.749 600.5,360C 599.7,364.08 599.2,368.247 599,372.5C 586.107,364.925 573.273,357.259 560.5,349.5C 560.5,349.167 560.5,348.833 560.5,348.5C 565.84,327.485 571.173,306.485 576.5,285.5 Z"/></g>
<g><path style="opacity:1" fill="#5c419e" d="M 530.5,331.5 C 531.397,332.598 532.23,332.598 533,331.5C 541.776,337.804 550.943,343.471 560.5,348.5C 560.5,348.833 560.5,349.167 560.5,349.5C 553.677,376.459 547.01,403.459 540.5,430.5C 539.833,430.5 539.5,430.833 539.5,431.5C 526.342,419.509 513.676,407.009 501.5,394C 500.906,393.536 500.239,393.369 499.5,393.5C 499.5,392.833 499.5,392.167 499.5,391.5C 509.833,371.5 520.167,351.5 530.5,331.5 Z"/></g>
<g><path style="opacity:1" fill="#6044a7" d="M 751.5,345.5 C 750.903,345.735 750.57,346.235 750.5,347C 759.293,373.544 768.293,400.377 777.5,427.5C 776.603,428.598 775.77,428.598 775,427.5C 759.632,406.073 743.799,385.073 727.5,364.5C 727.5,364.167 727.5,363.833 727.5,363.5C 734.298,357.203 740.965,350.703 747.5,344C 749.352,343.227 750.686,343.727 751.5,345.5 Z"/></g>
<g><path style="opacity:1" fill="#6648b0" d="M 751.5,345.5 C 782.983,377.322 814.983,409.655 847.5,442.5C 847.232,444.099 847.566,445.432 848.5,446.5C 851.108,461.422 853.442,476.422 855.5,491.5C 836.011,492.015 817.011,492.015 798.5,491.5C 791.102,470.307 784.102,448.974 777.5,427.5C 768.293,400.377 759.293,373.544 750.5,347C 750.57,346.235 750.903,345.735 751.5,345.5 Z"/></g>
<g><path style="opacity:1" fill="#6f4ebf" d="M 452.5,341.5 C 452.093,342.75 452.759,343.917 454.5,345C 454.167,345.333 453.833,345.667 453.5,346C 459.545,351.71 465.212,357.71 470.5,364C 445.43,398.301 419.43,433.301 392.5,469C 393.762,473.417 395.762,477.417 398.5,481C 397.826,482.751 397.493,484.417 397.5,486C 399.342,487.346 400.342,489.179 400.5,491.5C 382.498,492.256 363.998,492.256 345,491.5C 344.5,492 344,492.5 343.5,493C 344.833,494.333 344.833,495.667 343.5,497C 344.726,503.515 346.059,510.015 347.5,516.5C 346.516,518.598 346.849,520.598 348.5,522.5C 348.431,524.278 348.097,526.111 347.5,528C 349.592,528.953 349.925,530.286 348.5,532C 349.267,533.47 349.933,534.97 350.5,536.5C 350.217,537.289 349.717,537.956 349,538.5C 333.659,522.992 318.159,507.659 302.5,492.5C 302.5,491.833 302.5,491.167 302.5,490.5C 315.167,478.5 327.5,466.167 339.5,453.5C 352.167,441.5 364.5,429.167 376.5,416.5C 388.527,403.806 400.86,391.473 413.5,379.5C 426.22,367.781 438.22,355.448 449.5,342.5C 450.609,342.443 451.609,342.11 452.5,341.5 Z"/></g>
<g><path style="opacity:1" fill="#684ab3" d="M 539.5,273.5 C 516.505,303.174 493.838,333.174 471.5,363.5C 480.521,373.188 489.854,382.521 499.5,391.5C 499.5,392.167 499.5,392.833 499.5,393.5C 487.657,416.173 475.657,439.839 463.5,464.5C 467.806,473.809 473.139,482.809 479.5,491.5C 469.849,491.264 460.182,491.264 450.5,491.5C 433.833,491.5 417.167,491.5 400.5,491.5C 400.342,489.179 399.342,487.346 397.5,486C 397.493,484.417 397.826,482.751 398.5,481C 395.762,477.417 393.762,473.417 392.5,469C 419.43,433.301 445.43,398.301 470.5,364C 465.212,357.71 459.545,351.71 453.5,346C 453.833,345.667 454.167,345.333 454.5,345C 452.759,343.917 452.093,342.75 452.5,341.5C 464.118,329.547 475.785,317.547 487.5,305.5C 499.86,292.473 512.527,279.806 525.5,267.5C 537.833,255.5 550.167,243.5 562.5,231.5C 563.496,231.586 564.329,231.252 565,230.5C 565.333,231.167 565.667,231.833 566,232.5C 566.667,229.833 567.333,229.833 568,232.5C 569.247,230.119 569.58,230.453 569,233.5C 559.029,246.651 549.196,259.985 539.5,273.5 Z"/></g>
<g><path style="opacity:1" fill="#5c419e" d="M 727.5,364.5 C 743.799,385.073 759.632,406.073 775,427.5C 775.77,428.598 776.603,428.598 777.5,427.5C 784.102,448.974 791.102,470.307 798.5,491.5C 781.833,491.5 765.167,491.5 748.5,491.5C 748.082,490.778 747.416,490.278 746.5,490C 747.299,488.251 746.632,486.918 744.5,486C 745.634,484.984 745.301,484.317 743.5,484C 743.833,483.667 744.167,483.333 744.5,483C 741.171,477.013 738.505,471.679 736.5,467C 735.833,465.667 734.833,464.667 733.5,464C 734.634,462.984 734.301,462.317 732.5,462C 733.634,460.984 733.301,460.317 731.5,460C 732.634,458.984 732.301,458.317 730.5,458C 731.299,456.251 730.632,454.918 728.5,454C 729.299,452.251 728.632,450.918 726.5,450C 727.634,448.984 727.301,448.317 725.5,448C 726.634,446.984 726.301,446.317 724.5,446C 724.833,445.667 725.167,445.333 725.5,445C 723.821,441.158 721.821,438.158 719.5,436C 720.299,434.251 719.632,432.918 717.5,432C 718.634,430.984 718.301,430.317 716.5,430C 716.833,429.667 717.167,429.333 717.5,429C 711.089,417.012 705.089,404.845 699.5,392.5C 706.935,383.562 714.935,375.062 723.5,367C 724.736,365.915 726.069,365.082 727.5,364.5 Z"/></g>
<g><path style="opacity:1" fill="#573d95" d="M 698.5,392.5 C 698.833,392.5 699.167,392.5 699.5,392.5C 705.089,404.845 711.089,417.012 717.5,429C 717.167,429.333 716.833,429.667 716.5,430C 718.301,430.317 718.634,430.984 717.5,432C 719.632,432.918 720.299,434.251 719.5,436C 721.821,438.158 723.821,441.158 725.5,445C 725.167,445.333 724.833,445.667 724.5,446C 726.301,446.317 726.634,446.984 725.5,448C 727.301,448.317 727.634,448.984 726.5,450C 728.632,450.918 729.299,452.251 728.5,454C 730.632,454.918 731.299,456.251 730.5,458C 732.301,458.317 732.634,458.984 731.5,460C 733.301,460.317 733.634,460.984 732.5,462C 734.301,462.317 734.634,462.984 733.5,464C 734.833,464.667 735.833,465.667 736.5,467C 738.505,471.679 741.171,477.013 744.5,483C 744.167,483.333 743.833,483.667 743.5,484C 745.301,484.317 745.634,484.984 744.5,486C 746.632,486.918 747.299,488.251 746.5,490C 747.416,490.278 748.082,490.778 748.5,491.5C 739.001,491.62 729.334,491.62 719.5,491.5C 718.167,491.5 716.833,491.5 715.5,491.5C 715.389,490.883 715.056,490.383 714.5,490C 716.007,489.163 716.507,487.996 716,486.5C 714.719,486.619 713.552,486.119 712.5,485C 713.167,484.667 713.833,484.333 714.5,484C 710.386,481.797 708.22,478.297 708,473.5C 707.851,476.279 707.017,476.779 705.5,475C 707.285,473.407 707.452,471.907 706,470.5C 704.334,471.34 704.167,470.84 705.5,469C 704.5,467 703.5,467 702.5,469C 703.833,470.84 703.666,471.34 702,470.5C 701.667,468.5 701.333,466.5 701,464.5C 698.833,461.5 696.667,458.5 694.5,455.5C 695.025,454.808 695.692,454.308 696.5,454C 695.24,452.887 694.073,452.72 693,453.5C 692.86,451.479 692.693,449.645 692.5,448C 691.551,447.383 690.718,447.549 690,448.5C 688.066,446.581 688.233,445.081 690.5,444C 688.699,443.683 688.366,443.016 689.5,442C 688.251,440.176 687.085,440.343 686,442.5C 685.493,441.004 685.993,439.837 687.5,439C 686.789,437.745 685.956,436.579 685,435.5C 684.086,436.654 683.253,436.487 682.5,435C 684.795,434.016 684.461,433.183 681.5,432.5C 680.201,433.09 679.368,434.09 679,435.5C 675.837,432.265 676.003,429.098 679.5,426C 678.638,423.266 677.805,423.099 677,425.5C 675.148,423.77 675.314,422.604 677.5,422C 676.186,421.015 675.186,419.848 674.5,418.5C 674.5,417.833 674.5,417.167 674.5,416.5C 682.833,408.833 690.833,400.833 698.5,392.5 Z"/></g>
<g><path style="opacity:1" fill="#6044a7" d="M 499.5,393.5 C 500.239,393.369 500.906,393.536 501.5,394C 513.676,407.009 526.342,419.509 539.5,431.5C 534.833,451.5 530.167,471.5 525.5,491.5C 519.833,491.5 514.167,491.5 508.5,491.5C 499.167,491.5 489.833,491.5 480.5,491.5C 480.167,491.5 479.833,491.5 479.5,491.5C 473.139,482.809 467.806,473.809 463.5,464.5C 475.657,439.839 487.657,416.173 499.5,393.5 Z"/></g>
<g><path style="opacity:1" fill="#48337c" d="M 540.5,430.5 C 540.365,432.554 541.032,434.221 542.5,435.5C 539.827,435.684 539.16,436.851 540.5,439C 538.183,443.567 536.516,448.4 535.5,453.5C 535.709,454.086 536.043,454.586 536.5,455C 534.536,457.518 533.87,460.184 534.5,463C 533.643,463.689 532.977,464.522 532.5,465.5C 532.632,466.963 532.965,468.463 533.5,470C 532.991,471.169 532.158,472.002 531,472.5C 529.988,476.883 528.821,481.216 527.5,485.5C 527.358,487.382 527.858,489.382 529,491.5C 529.656,487.998 530.989,487.998 533,491.5C 534.333,491.5 535.667,491.5 537,491.5C 538.333,490.167 539.667,488.833 541,487.5C 541.667,492.833 542.333,492.833 543,487.5C 544.53,488.636 545.863,489.636 547,490.5C 547.333,489.833 547.667,489.167 548,488.5C 548.419,489.672 549.085,490.672 550,491.5C 551.566,492.061 552.899,491.394 554,489.5C 554.333,490.167 554.667,490.833 555,491.5C 557.263,486.298 558.93,485.964 560,490.5C 560.333,489.167 560.667,487.833 561,486.5C 562.574,487.984 563.907,489.651 565,491.5C 568.333,490.167 571.667,490.167 575,491.5C 576.309,489.109 577.309,489.109 578,491.5C 578.691,489.109 579.691,489.109 581,491.5C 582.487,490.747 582.654,489.914 581.5,489C 583.017,487.221 583.851,487.721 584,490.5C 584.811,486.099 585.977,485.766 587.5,489.5C 588.325,490.386 589.325,490.719 590.5,490.5C 590.413,487.402 590.913,487.068 592,489.5C 592.333,488.833 592.667,488.167 593,487.5C 594.044,488.623 594.71,489.956 595,491.5C 595.483,490.552 595.649,489.552 595.5,488.5C 596.833,489.167 597.833,490.167 598.5,491.5C 579.184,511.923 559.518,532.089 539.5,552C 542.85,561.212 545.017,570.045 546,578.5C 540.585,574.875 535.085,571.375 529.5,568C 527.975,566.991 526.308,566.491 524.5,566.5C 524.5,565.833 524.5,565.167 524.5,564.5C 527.518,563.647 529.351,561.647 530,558.5C 530.333,558.833 530.667,559.167 531,559.5C 534.396,556.607 537.229,553.274 539.5,549.5C 538.346,545.883 537.346,542.216 536.5,538.5C 536.182,537.353 535.516,536.519 534.5,536C 537.167,535.333 537.167,534.667 534.5,534C 534.833,533.667 535.167,533.333 535.5,533C 535.004,531.004 534.004,529.337 532.5,528C 535.167,527.333 535.167,526.667 532.5,526C 532.833,525.667 533.167,525.333 533.5,525C 533.004,523.004 532.004,521.337 530.5,520C 531.572,516.956 530.906,514.289 528.5,512C 531.167,511.333 531.167,510.667 528.5,510C 528.833,509.667 529.167,509.333 529.5,509C 528.218,503.745 526.718,498.911 525,494.5C 523.984,493.366 523.317,493.699 523,495.5C 522.16,492.536 521.16,492.203 520,494.5C 518.84,492.203 517.84,492.536 517,495.5C 516.16,492.536 515.16,492.203 514,494.5C 512.84,492.203 511.84,492.536 511,495.5C 510.338,494.016 509.504,492.683 508.5,491.5C 514.167,491.5 519.833,491.5 525.5,491.5C 530.167,471.5 534.833,451.5 539.5,431.5C 539.5,430.833 539.833,430.5 540.5,430.5 Z"/></g>
<g><path style="opacity:1" fill="#48337c" d="M 674.5,416.5 C 674.5,417.167 674.5,417.833 674.5,418.5C 672.352,418.389 672.019,419.056 673.5,420.5C 672.902,421.795 672.402,423.128 672,424.5C 671.751,423.376 671.251,422.376 670.5,421.5C 667.371,424.794 664.037,427.96 660.5,431C 660.888,432.808 660.888,434.475 660.5,436C 663.65,439.195 664.317,442.528 662.5,446C 663.227,447.399 663.727,448.899 664,450.5C 664.333,447.833 664.667,445.167 665,442.5C 665.866,447.914 666.2,453.247 666,458.5C 666.333,457.5 666.667,456.5 667,455.5C 667.783,457.433 667.283,458.933 665.5,460C 667.904,460.508 668.571,461.675 667.5,463.5C 670.404,467.117 671.404,471.117 670.5,475.5C 671.392,480.743 672.725,485.743 674.5,490.5C 673.833,492.5 673.167,494.5 672.5,496.5C 670.534,495.745 670.2,494.579 671.5,493C 669.003,490.83 667.17,491.33 666,494.5C 665.333,491.833 664.667,491.833 664,494.5C 663.333,490.5 662.667,490.5 662,494.5C 660.522,491.007 658.522,490.674 656,493.5C 655.333,492.167 654.667,492.167 654,493.5C 653.333,490.833 652.667,490.833 652,493.5C 651.333,490.833 650.667,490.833 650,493.5C 649.333,492.167 648.667,492.167 648,493.5C 647.333,490.833 646.667,490.833 646,493.5C 645,492.167 644,492.167 643,493.5C 641.518,491.219 639.851,491.219 638,493.5C 637.333,490.833 636.667,490.833 636,493.5C 635.333,492.167 634.667,492.167 634,493.5C 633.333,490.833 632.667,490.833 632,493.5C 629.747,493.369 627.581,493.035 625.5,492.5C 624.808,493.025 624.308,493.692 624,494.5C 623.612,493.572 622.945,492.905 622,492.5C 619.805,492.638 617.638,492.638 615.5,492.5C 614.808,493.025 614.308,493.692 614,494.5C 613.612,493.572 612.945,492.905 612,492.5C 610.85,493.424 609.85,493.424 609,492.5C 607.681,494.25 607.181,496.25 607.5,498.5C 604.806,496.473 602.473,494.139 600.5,491.5C 619.546,470.951 639.213,450.784 659.5,431C 657.536,423.539 655.202,415.872 652.5,408C 652.982,406.992 653.148,405.825 653,404.5C 659.861,409.177 667.027,413.177 674.5,416.5 Z"/></g>
<g><path style="opacity:1" fill="#6f4ebf" d="M 896.5,490.5 C 896.5,491.167 896.5,491.833 896.5,492.5C 884.5,505.167 872.167,517.5 859.5,529.5C 847.473,542.194 835.14,554.527 822.5,566.5C 810.14,578.86 797.806,591.194 785.5,603.5C 773.167,615.167 761.167,627.167 749.5,639.5C 741.694,633.528 734.694,626.694 728.5,619C 753.962,583.917 779.796,549.083 806,514.5C 803.961,507.204 801.461,499.537 798.5,491.5C 817.011,492.015 836.011,492.015 855.5,491.5C 853.442,476.422 851.108,461.422 848.5,446.5C 848.351,445.448 848.517,444.448 849,443.5C 864.728,459.396 880.562,475.062 896.5,490.5 Z"/></g>
<g><path style="opacity:1" fill="#503889" d="M 674.5,418.5 C 675.186,419.848 676.186,421.015 677.5,422C 675.314,422.604 675.148,423.77 677,425.5C 677.805,423.099 678.638,423.266 679.5,426C 676.003,429.098 675.837,432.265 679,435.5C 679.368,434.09 680.201,433.09 681.5,432.5C 684.461,433.183 684.795,434.016 682.5,435C 683.253,436.487 684.086,436.654 685,435.5C 685.956,436.579 686.789,437.745 687.5,439C 685.993,439.837 685.493,441.004 686,442.5C 687.085,440.343 688.251,440.176 689.5,442C 688.366,443.016 688.699,443.683 690.5,444C 688.233,445.081 688.066,446.581 690,448.5C 690.718,447.549 691.551,447.383 692.5,448C 692.693,449.645 692.86,451.479 693,453.5C 694.073,452.72 695.24,452.887 696.5,454C 695.692,454.308 695.025,454.808 694.5,455.5C 696.667,458.5 698.833,461.5 701,464.5C 701.333,466.5 701.667,468.5 702,470.5C 703.666,471.34 703.833,470.84 702.5,469C 703.5,467 704.5,467 705.5,469C 704.167,470.84 704.334,471.34 706,470.5C 707.452,471.907 707.285,473.407 705.5,475C 707.017,476.779 707.851,476.279 708,473.5C 708.22,478.297 710.386,481.797 714.5,484C 713.833,484.333 713.167,484.667 712.5,485C 713.552,486.119 714.719,486.619 716,486.5C 716.507,487.996 716.007,489.163 714.5,490C 715.056,490.383 715.389,490.883 715.5,491.5C 701.754,491.815 688.088,491.481 674.5,490.5C 672.725,485.743 671.392,480.743 670.5,475.5C 671.404,471.117 670.404,467.117 667.5,463.5C 668.571,461.675 667.904,460.508 665.5,460C 667.283,458.933 667.783,457.433 667,455.5C 666.667,456.5 666.333,457.5 666,458.5C 666.2,453.247 665.866,447.914 665,442.5C 664.667,445.167 664.333,447.833 664,450.5C 663.727,448.899 663.227,447.399 662.5,446C 664.317,442.528 663.65,439.195 660.5,436C 660.888,434.475 660.888,432.808 660.5,431C 664.037,427.96 667.371,424.794 670.5,421.5C 671.251,422.376 671.751,423.376 672,424.5C 672.402,423.128 672.902,421.795 673.5,420.5C 672.019,419.056 672.352,418.389 674.5,418.5 Z"/></g>
<g><path style="opacity:1" fill="#432f73" d="M 542.5,435.5 C 560.748,452.483 578.414,470.15 595.5,488.5C 595.649,489.552 595.483,490.552 595,491.5C 594.71,489.956 594.044,488.623 593,487.5C 592.667,488.167 592.333,488.833 592,489.5C 590.913,487.068 590.413,487.402 590.5,490.5C 589.325,490.719 588.325,490.386 587.5,489.5C 585.977,485.766 584.811,486.099 584,490.5C 583.851,487.721 583.017,487.221 581.5,489C 582.654,489.914 582.487,490.747 581,491.5C 579.691,489.109 578.691,489.109 578,491.5C 577.309,489.109 576.309,489.109 575,491.5C 571.667,490.167 568.333,490.167 565,491.5C 563.907,489.651 562.574,487.984 561,486.5C 560.667,487.833 560.333,489.167 560,490.5C 558.93,485.964 557.263,486.298 555,491.5C 554.667,490.833 554.333,490.167 554,489.5C 552.899,491.394 551.566,492.061 550,491.5C 549.085,490.672 548.419,489.672 548,488.5C 547.667,489.167 547.333,489.833 547,490.5C 545.863,489.636 544.53,488.636 543,487.5C 542.333,492.833 541.667,492.833 541,487.5C 539.667,488.833 538.333,490.167 537,491.5C 535.667,491.5 534.333,491.5 533,491.5C 530.989,487.998 529.656,487.998 529,491.5C 527.858,489.382 527.358,487.382 527.5,485.5C 528.821,481.216 529.988,476.883 531,472.5C 532.158,472.002 532.991,471.169 533.5,470C 532.965,468.463 532.632,466.963 532.5,465.5C 532.977,464.522 533.643,463.689 534.5,463C 533.87,460.184 534.536,457.518 536.5,455C 536.043,454.586 535.709,454.086 535.5,453.5C 536.516,448.4 538.183,443.567 540.5,439C 539.16,436.851 539.827,435.684 542.5,435.5 Z"/></g>
<g><path style="opacity:1" fill="#6648b0" d="M 400.5,491.5 C 407.808,512.733 414.808,534.067 421.5,555.5C 430.898,582.693 439.898,610.027 448.5,637.5C 415.833,605.5 383.5,573.167 351.5,540.5C 351.768,538.901 351.434,537.568 350.5,536.5C 349.933,534.97 349.267,533.47 348.5,532C 349.925,530.286 349.592,528.953 347.5,528C 348.097,526.111 348.431,524.278 348.5,522.5C 346.849,520.598 346.516,518.598 347.5,516.5C 346.059,510.015 344.726,503.515 343.5,497C 344.833,495.667 344.833,494.333 343.5,493C 344,492.5 344.5,492 345,491.5C 363.998,492.256 382.498,492.256 400.5,491.5 Z"/></g>
<g><path style="opacity:1" fill="#5c419e" d="M 400.5,491.5 C 417.167,491.5 433.833,491.5 450.5,491.5C 464.246,518.829 478.246,546.996 492.5,576C 495.74,581.269 498.073,586.436 499.5,591.5C 490.369,601.132 481.036,610.632 471.5,620C 472.669,622.007 473.335,624.173 473.5,626.5C 472.207,625.158 471.374,623.491 471,621.5C 470.667,622.5 470.333,623.5 470,624.5C 469.722,623.584 469.222,622.918 468.5,622.5C 470.921,620.377 471.088,618.044 469,615.5C 453.615,595.783 438.615,575.783 424,555.5C 423.23,554.402 422.397,554.402 421.5,555.5C 414.808,534.067 407.808,512.733 400.5,491.5 Z"/></g>
<g><path style="opacity:1" fill="#573d95" d="M 479.5,491.5 C 479.833,491.5 480.167,491.5 480.5,491.5C 481.072,492.973 481.905,494.307 483,495.5C 483.333,495.167 483.667,494.833 484,494.5C 483.021,496.279 483.354,497.945 485,499.5C 485.317,497.699 485.984,497.366 487,498.5C 488.619,500.956 489.119,503.456 488.5,506C 489.701,506.903 490.535,508.069 491,509.5C 491.317,507.699 491.984,507.366 493,508.5C 494.505,510.298 494.672,512.132 493.5,514C 494.749,515.824 495.915,515.657 497,513.5C 499.033,515.35 499.033,516.016 497,515.5C 496.5,516 496,516.5 495.5,517C 496.63,519.428 498.13,521.595 500,523.5C 500.333,523.167 500.667,522.833 501,522.5C 501.492,523.549 501.326,524.549 500.5,525.5C 501.531,526.7 502.365,528.034 503,529.5C 503.419,528.328 504.085,527.328 505,526.5C 506.119,529.057 506.285,531.557 505.5,534C 506.749,535.824 507.915,535.657 509,533.5C 511.033,535.35 511.033,536.016 509,535.5C 508.5,536 508,536.5 507.5,537C 508.874,539.583 510.374,542.083 512,544.5C 512.419,543.328 513.085,542.328 514,541.5C 514.265,543.163 513.765,544.663 512.5,546C 514.701,547.684 515.367,549.684 514.5,552C 516.03,554.197 517.864,555.03 520,554.5C 520.051,558.285 521.551,561.619 524.5,564.5C 524.5,565.167 524.5,565.833 524.5,566.5C 515.75,574.247 507.75,582.581 500.5,591.5C 500.167,591.5 499.833,591.5 499.5,591.5C 498.073,586.436 495.74,581.269 492.5,576C 478.246,546.996 464.246,518.829 450.5,491.5C 460.182,491.264 469.849,491.264 479.5,491.5 Z"/></g>
<g><path style="opacity:1" fill="#3e2c6b" d="M 598.5,491.5 C 598.833,491.5 599.167,491.5 599.5,491.5C 599.814,529.476 599.814,569.143 599.5,610.5C 583.719,601.226 568.052,591.726 552.5,582C 550.598,580.699 548.598,580.032 546.5,580C 555.06,612.741 563.394,645.575 571.5,678.5C 571.167,679.167 570.833,679.833 570.5,680.5C 560.509,676.606 550.509,673.606 540.5,671.5C 552.482,695.464 564.482,719.464 576.5,743.5C 583.261,757.357 590.261,771.024 597.5,784.5C 598.404,785.209 598.737,786.209 598.5,787.5C 583.725,773.392 569.392,759.058 555.5,744.5C 556.268,743.737 556.768,742.737 557,741.5C 557.667,745.5 558.333,745.5 559,741.5C 559.333,742.5 559.667,743.5 560,744.5C 560.442,742.321 561.442,741.655 563,742.5C 542.909,713.867 522.076,685.534 500.5,657.5C 500.667,657.167 500.833,656.833 501,656.5C 513.669,661.431 526.502,665.598 539.5,669C 526.359,643.218 513.359,617.384 500.5,591.5C 507.75,582.581 515.75,574.247 524.5,566.5C 526.308,566.491 527.975,566.991 529.5,568C 535.085,571.375 540.585,574.875 546,578.5C 545.017,570.045 542.85,561.212 539.5,552C 559.518,532.089 579.184,511.923 598.5,491.5 Z"/></g>
<g><path style="opacity:1" fill="#382760" d="M 599.5,491.5 C 599.833,491.5 600.167,491.5 600.5,491.5C 602.473,494.139 604.806,496.473 607.5,498.5C 613.803,505.304 620.303,511.971 627,518.5C 627.333,516.833 627.667,515.167 628,513.5C 628.287,515.891 628.787,518.224 629.5,520.5C 638.246,530.148 647.412,539.482 657,548.5C 657.333,547.167 657.667,545.833 658,544.5C 658.497,547.146 658.664,549.813 658.5,552.5C 652.3,579.635 645.633,606.635 638.5,633.5C 625.335,626.085 612.335,618.419 599.5,610.5C 599.814,569.143 599.814,529.476 599.5,491.5 Z"/></g>
<g><path style="opacity:1" fill="#6044a7" d="M 674.5,490.5 C 688.088,491.481 701.754,491.815 715.5,491.5C 716.833,491.5 718.167,491.5 719.5,491.5C 720.429,492.315 721.429,493.148 722.5,494C 721.167,495.84 721.334,496.34 723,495.5C 724.688,496.325 724.855,497.325 723.5,498.5C 726.468,503.964 729.634,509.297 733,514.5C 733.914,513.346 734.747,513.513 735.5,515C 734.289,516.113 734.289,517.28 735.5,518.5C 723.726,542.383 711.726,566.05 699.5,589.5C 698.761,589.631 698.094,589.464 697.5,589C 684.992,576.325 672.325,563.825 659.5,551.5C 663.675,533.132 668.009,514.798 672.5,496.5C 673.167,494.5 673.833,492.5 674.5,490.5 Z"/></g>
<g><path style="opacity:1" fill="#684ab4" d="M 719.5,491.5 C 729.334,491.62 739.001,491.62 748.5,491.5C 765.167,491.5 781.833,491.5 798.5,491.5C 801.461,499.537 803.961,507.204 806,514.5C 779.796,549.083 753.962,583.917 728.5,619C 734.694,626.694 741.694,633.528 749.5,639.5C 749.5,639.833 749.5,640.167 749.5,640.5C 736.219,652.114 723.552,664.447 711.5,677.5C 698.86,690.14 686.194,702.806 673.5,715.5C 660.833,727.5 648.5,739.833 636.5,752.5C 628.752,760.248 621.086,767.914 613.5,775.5C 612.624,775.631 611.957,775.298 611.5,774.5C 612,773.5 612.5,772.5 613,771.5C 629.126,751.221 644.626,730.554 659.5,709.5C 682.351,679.216 705.018,649.049 727.5,619C 718.298,609.631 708.965,600.464 699.5,591.5C 699.5,590.833 699.5,590.167 699.5,589.5C 711.726,566.05 723.726,542.383 735.5,518.5C 734.289,517.28 734.289,516.113 735.5,515C 734.747,513.513 733.914,513.346 733,514.5C 729.634,509.297 726.468,503.964 723.5,498.5C 724.855,497.325 724.688,496.325 723,495.5C 721.334,496.34 721.167,495.84 722.5,494C 721.429,493.148 720.429,492.315 719.5,491.5 Z"/></g>
<g><path style="opacity:1" fill="#543b91" d="M 896.5,193.5 C 897.5,390.333 897.833,587.333 897.5,784.5C 896.833,784.5 896.167,784.5 895.5,784.5C 872.6,713.475 848.267,640.809 822.5,566.5C 835.14,554.527 847.473,542.194 859.5,529.5C 872.528,611.859 884.695,694.526 896,777.5C 896.5,682.501 896.667,587.501 896.5,492.5C 896.5,491.833 896.5,491.167 896.5,490.5C 896.833,391.999 896.499,293.665 895.5,195.5C 895.833,194.833 896.167,194.167 896.5,193.5 Z"/></g>
<g><path style="opacity:1" fill="#6044a7" d="M 302.5,492.5 C 318.159,507.659 333.659,522.992 349,538.5C 349.717,537.956 350.217,537.289 350.5,536.5C 351.434,537.568 351.768,538.901 351.5,540.5C 359.087,598.623 367.087,656.956 375.5,715.5C 351.833,739.833 327.833,763.833 303.5,787.5C 302.501,689.335 302.167,591.001 302.5,492.5 Z"/></g>
<g><path style="opacity:1" fill="#6044a7" d="M 896.5,492.5 C 896.667,587.501 896.5,682.501 896,777.5C 884.695,694.526 872.528,611.859 859.5,529.5C 872.167,517.5 884.5,505.167 896.5,492.5 Z"/></g>
<g><path style="opacity:1" fill="#432f73" d="M 672.5,496.5 C 668.009,514.798 663.675,533.132 659.5,551.5C 659.5,552.167 659.167,552.5 658.5,552.5C 658.664,549.813 658.497,547.146 658,544.5C 657.667,545.833 657.333,547.167 657,548.5C 647.412,539.482 638.246,530.148 629.5,520.5C 628.787,518.224 628.287,515.891 628,513.5C 627.667,515.167 627.333,516.833 627,518.5C 620.303,511.971 613.803,505.304 607.5,498.5C 607.181,496.25 607.681,494.25 609,492.5C 609.85,493.424 610.85,493.424 612,492.5C 612.945,492.905 613.612,493.572 614,494.5C 614.308,493.692 614.808,493.025 615.5,492.5C 617.638,492.638 619.805,492.638 622,492.5C 622.945,492.905 623.612,493.572 624,494.5C 624.308,493.692 624.808,493.025 625.5,492.5C 627.581,493.035 629.747,493.369 632,493.5C 632.667,490.833 633.333,490.833 634,493.5C 634.667,492.167 635.333,492.167 636,493.5C 636.667,490.833 637.333,490.833 638,493.5C 639.851,491.219 641.518,491.219 643,493.5C 644,492.167 645,492.167 646,493.5C 646.667,490.833 647.333,490.833 648,493.5C 648.667,492.167 649.333,492.167 650,493.5C 650.667,490.833 651.333,490.833 652,493.5C 652.667,490.833 653.333,490.833 654,493.5C 654.667,492.167 655.333,492.167 656,493.5C 658.522,490.674 660.522,491.007 662,494.5C 662.667,490.5 663.333,490.5 664,494.5C 664.667,491.833 665.333,491.833 666,494.5C 667.17,491.33 669.003,490.83 671.5,493C 670.2,494.579 670.534,495.745 672.5,496.5 Z"/></g>
<g><path style="opacity:1" fill="#4f3889" d="M 480.5,491.5 C 489.833,491.5 499.167,491.5 508.5,491.5C 509.504,492.683 510.338,494.016 511,495.5C 511.84,492.536 512.84,492.203 514,494.5C 515.16,492.203 516.16,492.536 517,495.5C 517.84,492.536 518.84,492.203 520,494.5C 521.16,492.203 522.16,492.536 523,495.5C 523.317,493.699 523.984,493.366 525,494.5C 526.718,498.911 528.218,503.745 529.5,509C 529.167,509.333 528.833,509.667 528.5,510C 531.167,510.667 531.167,511.333 528.5,512C 530.906,514.289 531.572,516.956 530.5,520C 532.004,521.337 533.004,523.004 533.5,525C 533.167,525.333 532.833,525.667 532.5,526C 535.167,526.667 535.167,527.333 532.5,528C 534.004,529.337 535.004,531.004 535.5,533C 535.167,533.333 534.833,533.667 534.5,534C 537.167,534.667 537.167,535.333 534.5,536C 535.516,536.519 536.182,537.353 536.5,538.5C 537.346,542.216 538.346,545.883 539.5,549.5C 537.229,553.274 534.396,556.607 531,559.5C 530.667,559.167 530.333,558.833 530,558.5C 529.351,561.647 527.518,563.647 524.5,564.5C 521.551,561.619 520.051,558.285 520,554.5C 517.864,555.03 516.03,554.197 514.5,552C 515.367,549.684 514.701,547.684 512.5,546C 513.765,544.663 514.265,543.163 514,541.5C 513.085,542.328 512.419,543.328 512,544.5C 510.374,542.083 508.874,539.583 507.5,537C 508,536.5 508.5,536 509,535.5C 511.033,536.016 511.033,535.35 509,533.5C 507.915,535.657 506.749,535.824 505.5,534C 506.285,531.557 506.119,529.057 505,526.5C 504.085,527.328 503.419,528.328 503,529.5C 502.365,528.034 501.531,526.7 500.5,525.5C 501.326,524.549 501.492,523.549 501,522.5C 500.667,522.833 500.333,523.167 500,523.5C 498.13,521.595 496.63,519.428 495.5,517C 496,516.5 496.5,516 497,515.5C 499.033,516.016 499.033,515.35 497,513.5C 495.915,515.657 494.749,515.824 493.5,514C 494.672,512.132 494.505,510.298 493,508.5C 491.984,507.366 491.317,507.699 491,509.5C 490.535,508.069 489.701,506.903 488.5,506C 489.119,503.456 488.619,500.956 487,498.5C 485.984,497.366 485.317,497.699 485,499.5C 483.354,497.945 483.021,496.279 484,494.5C 483.667,494.833 483.333,495.167 483,495.5C 481.905,494.307 481.072,492.973 480.5,491.5 Z"/></g>
<g><path style="opacity:1" fill="#543b90" d="M 351.5,540.5 C 383.5,573.167 415.833,605.5 448.5,637.5C 448.843,639.225 449.843,639.725 451.5,639C 457.393,633.605 463.059,628.105 468.5,622.5C 469.222,622.918 469.722,623.584 470,624.5C 470.333,623.5 470.667,622.5 471,621.5C 471.374,623.491 472.207,625.158 473.5,626.5C 474.268,625.737 474.768,624.737 475,623.5C 475.36,625.608 476.027,627.608 477,629.5C 477.333,628.833 477.667,628.167 478,627.5C 484.036,637.248 490.536,646.081 497.5,654C 496.251,655.824 495.085,655.657 494,653.5C 493.667,653.833 493.333,654.167 493,654.5C 492.641,651.456 491.974,651.122 491,653.5C 489.956,652.377 489.29,651.044 489,649.5C 488.667,650.5 488.333,651.5 488,652.5C 486.39,652.87 484.89,652.203 483.5,650.5C 482.402,646.639 481.569,646.639 481,650.5C 480.147,648.875 479.147,648.542 478,649.5C 476.245,648.33 475.245,646.663 475,644.5C 474.581,648.852 473.914,649.185 473,645.5C 472.667,646.167 472.333,646.833 472,647.5C 471,646.5 470,645.5 469,644.5C 468.333,647.167 467.667,647.167 467,644.5C 466.667,644.833 466.333,645.167 466,645.5C 464.956,644.377 464.29,643.044 464,641.5C 463.779,644.943 462.779,645.276 461,642.5C 460.667,642.833 460.333,643.167 460,643.5C 459.536,637.825 458.869,637.492 458,642.5C 457.333,641.167 456.667,641.167 456,642.5C 455.085,641.672 454.419,640.672 454,639.5C 453.329,640.252 452.496,640.586 451.5,640.5C 426.167,665.167 401.167,690.167 376.5,715.5C 376.167,715.5 375.833,715.5 375.5,715.5C 367.087,656.956 359.087,598.623 351.5,540.5 Z"/></g>
<g><path style="opacity:1" fill="#5c419e" d="M 659.5,551.5 C 672.325,563.825 684.992,576.325 697.5,589C 698.094,589.464 698.761,589.631 699.5,589.5C 699.5,590.167 699.5,590.833 699.5,591.5C 688.781,612.003 678.447,632.67 668.5,653.5C 667.969,651.376 666.635,649.876 664.5,649C 655.958,643.897 647.292,639.064 638.5,634.5C 638.5,634.167 638.5,633.833 638.5,633.5C 645.633,606.635 652.3,579.635 658.5,552.5C 659.167,552.5 659.5,552.167 659.5,551.5 Z"/></g>
<g><path style="opacity:1" fill="#6044a7" d="M 468.5,622.5 C 463.059,628.105 457.393,633.605 451.5,639C 449.843,639.725 448.843,639.225 448.5,637.5C 439.898,610.027 430.898,582.693 421.5,555.5C 422.397,554.402 423.23,554.402 424,555.5C 438.615,575.783 453.615,595.783 469,615.5C 471.088,618.044 470.921,620.377 468.5,622.5 Z"/></g>
<g><path style="opacity:1" fill="#48337b" d="M 822.5,566.5 C 848.267,640.809 872.6,713.475 895.5,784.5C 858.582,724.333 821.915,664 785.5,603.5C 797.806,591.194 810.14,578.86 822.5,566.5 Z"/></g>
<g><path style="opacity:1" fill="#35265c" d="M 599.5,610.5 C 599.212,637.446 599.212,663.779 599.5,689.5C 597.295,689.148 595.462,688.148 594,686.5C 593.586,686.957 593.086,687.291 592.5,687.5C 586.29,685.366 579.79,683.033 573,680.5C 572.793,685.176 573.626,689.676 575.5,694C 575.167,694.333 574.833,694.667 574.5,695C 576.384,699.674 578.051,704.507 579.5,709.5C 578.529,710.962 578.862,712.295 580.5,713.5C 579.529,714.962 579.862,716.295 581.5,717.5C 580.653,719.061 580.986,720.561 582.5,722C 581.346,722.914 581.513,723.747 583,724.5C 583.982,731.315 585.482,737.981 587.5,744.5C 583.821,744.276 580.154,743.942 576.5,743.5C 564.482,719.464 552.482,695.464 540.5,671.5C 550.509,673.606 560.509,676.606 570.5,680.5C 570.833,679.833 571.167,679.167 571.5,678.5C 563.394,645.575 555.06,612.741 546.5,580C 548.598,580.032 550.598,580.699 552.5,582C 568.052,591.726 583.719,601.226 599.5,610.5 Z"/></g>
<g><path style="opacity:1" fill="#6145a8" d="M 699.5,591.5 C 708.965,600.464 718.298,609.631 727.5,619C 705.018,649.049 682.351,679.216 659.5,709.5C 656.206,709.019 653.372,707.686 651,705.5C 650.586,705.957 650.086,706.291 649.5,706.5C 647.271,705.423 644.937,704.756 642.5,704.5C 642.918,703.778 643.584,703.278 644.5,703C 644.167,702.667 643.833,702.333 643.5,702C 651.848,685.462 660.181,669.295 668.5,653.5C 678.447,632.67 688.781,612.003 699.5,591.5 Z"/></g>
<g><path style="opacity:1" fill="#3d2b69" d="M 785.5,603.5 C 821.915,664 858.582,724.333 895.5,784.5C 896.167,784.5 896.833,784.5 897.5,784.5C 897.854,786.767 897.521,788.101 896.5,788.5C 847.5,739.167 798.5,689.833 749.5,640.5C 749.5,640.167 749.5,639.833 749.5,639.5C 761.167,627.167 773.167,615.167 785.5,603.5 Z"/></g>
<g><path style="opacity:1" fill="#2d204f" d="M 599.5,610.5 C 612.335,618.419 625.335,626.085 638.5,633.5C 638.5,633.833 638.5,634.167 638.5,634.5C 632.723,655.275 627.389,676.275 622.5,697.5C 614.93,694.548 607.263,691.881 599.5,689.5C 599.212,663.779 599.212,637.446 599.5,610.5 Z"/></g>
<g><path style="opacity:1" fill="#553c92" d="M 638.5,634.5 C 647.292,639.064 655.958,643.897 664.5,649C 666.635,649.876 667.969,651.376 668.5,653.5C 660.181,669.295 651.848,685.462 643.5,702C 643.833,702.333 644.167,702.667 644.5,703C 643.584,703.278 642.918,703.778 642.5,704.5C 635.18,719.14 627.847,733.807 620.5,748.5C 622.465,750.519 622.631,752.519 621,754.5C 620.583,753.244 619.75,752.577 618.5,752.5C 618.414,751.504 618.748,750.671 619.5,750C 618.584,749.626 617.75,749.126 617,748.5C 615.732,748.616 614.398,748.949 613,749.5C 612.005,748.934 611.172,748.267 610.5,747.5C 614.19,730.741 618.19,714.075 622.5,697.5C 627.389,676.275 632.723,655.275 638.5,634.5 Z"/></g>
<g><path style="opacity:1" fill="#48337b" d="M 499.5,591.5 C 499.833,591.5 500.167,591.5 500.5,591.5C 513.359,617.384 526.359,643.218 539.5,669C 526.502,665.598 513.669,661.431 501,656.5C 500.833,656.833 500.667,657.167 500.5,657.5C 522.076,685.534 542.909,713.867 563,742.5C 561.442,741.655 560.442,742.321 560,744.5C 559.667,743.5 559.333,742.5 559,741.5C 558.333,745.5 557.667,745.5 557,741.5C 556.768,742.737 556.268,743.737 555.5,744.5C 553.544,742.886 551.544,741.219 549.5,739.5C 516.833,706.5 484.167,673.5 451.5,640.5C 452.496,640.586 453.329,640.252 454,639.5C 454.419,640.672 455.085,641.672 456,642.5C 456.667,641.167 457.333,641.167 458,642.5C 458.869,637.492 459.536,637.825 460,643.5C 460.333,643.167 460.667,642.833 461,642.5C 462.779,645.276 463.779,644.943 464,641.5C 464.29,643.044 464.956,644.377 466,645.5C 466.333,645.167 466.667,644.833 467,644.5C 467.667,647.167 468.333,647.167 469,644.5C 470,645.5 471,646.5 472,647.5C 472.333,646.833 472.667,646.167 473,645.5C 473.914,649.185 474.581,648.852 475,644.5C 475.245,646.663 476.245,648.33 478,649.5C 479.147,648.542 480.147,648.875 481,650.5C 481.569,646.639 482.402,646.639 483.5,650.5C 484.89,652.203 486.39,652.87 488,652.5C 488.333,651.5 488.667,650.5 489,649.5C 489.29,651.044 489.956,652.377 491,653.5C 491.974,651.122 492.641,651.456 493,654.5C 493.333,654.167 493.667,653.833 494,653.5C 495.085,655.657 496.251,655.824 497.5,654C 490.536,646.081 484.036,637.248 478,627.5C 477.667,628.167 477.333,628.833 477,629.5C 476.027,627.608 475.36,625.608 475,623.5C 474.768,624.737 474.268,625.737 473.5,626.5C 473.335,624.173 472.669,622.007 471.5,620C 481.036,610.632 490.369,601.132 499.5,591.5 Z"/></g>
<g><path style="opacity:1" fill="#302254" d="M 749.5,640.5 C 798.5,689.833 847.5,739.167 896.5,788.5C 895.833,788.5 895.167,788.5 894.5,788.5C 894.5,787.833 894.167,787.5 893.5,787.5C 833.118,750.471 772.452,713.804 711.5,677.5C 723.552,664.447 736.219,652.114 749.5,640.5 Z"/></g>
<g><path style="opacity:1" fill="#18112a" d="M 451.5,640.5 C 484.167,673.5 516.833,706.5 549.5,739.5C 492.434,731.282 434.768,723.282 376.5,715.5C 401.167,690.167 426.167,665.167 451.5,640.5 Z"/></g>
<g><path style="opacity:1" fill="#24193e" d="M 711.5,677.5 C 772.452,713.804 833.118,750.471 893.5,787.5C 820.178,763.281 746.845,739.281 673.5,715.5C 686.194,702.806 698.86,690.14 711.5,677.5 Z"/></g>
<g><path style="opacity:1" fill="#2c1f4c" d="M 599.5,689.5 C 598.294,707.23 598.294,726.23 599.5,746.5C 596.801,746.534 594.301,745.867 592,744.5C 591,745.833 590,745.833 589,744.5C 589.769,751.753 591.269,758.92 593.5,766C 593.355,766.772 593.022,767.439 592.5,768C 595.309,773.05 596.976,778.55 597.5,784.5C 590.261,771.024 583.261,757.357 576.5,743.5C 580.154,743.942 583.821,744.276 587.5,744.5C 585.482,737.981 583.982,731.315 583,724.5C 581.513,723.747 581.346,722.914 582.5,722C 580.986,720.561 580.653,719.061 581.5,717.5C 579.862,716.295 579.529,714.962 580.5,713.5C 578.862,712.295 578.529,710.962 579.5,709.5C 578.051,704.507 576.384,699.674 574.5,695C 574.833,694.667 575.167,694.333 575.5,694C 573.626,689.676 572.793,685.176 573,680.5C 579.79,683.033 586.29,685.366 592.5,687.5C 593.086,687.291 593.586,686.957 594,686.5C 595.462,688.148 597.295,689.148 599.5,689.5 Z"/></g>
<g><path style="opacity:1" fill="#23183c" d="M 599.5,689.5 C 607.263,691.881 614.93,694.548 622.5,697.5C 618.19,714.075 614.19,730.741 610.5,747.5C 609.833,747.5 609.5,747.833 609.5,748.5C 606.112,746.936 602.778,746.27 599.5,746.5C 598.294,726.23 598.294,707.23 599.5,689.5 Z"/></g>
<g><path style="opacity:1" fill="#5b409c" d="M 642.5,704.5 C 644.937,704.756 647.271,705.423 649.5,706.5C 650.086,706.291 650.586,705.957 651,705.5C 653.372,707.686 656.206,709.019 659.5,709.5C 644.626,730.554 629.126,751.221 613,771.5C 612.5,772.5 612,773.5 611.5,774.5C 611.957,775.298 612.624,775.631 613.5,775.5C 610.527,779.14 607.194,782.473 603.5,785.5C 602.761,785.631 602.094,785.464 601.5,785C 607.608,774.279 613.275,763.446 618.5,752.5C 619.75,752.577 620.583,753.244 621,754.5C 622.631,752.519 622.465,750.519 620.5,748.5C 627.847,733.807 635.18,719.14 642.5,704.5 Z"/></g>
<g><path style="opacity:1" fill="#0c0916" d="M 375.5,715.5 C 375.833,715.5 376.167,715.5 376.5,715.5C 434.768,723.282 492.434,731.282 549.5,739.5C 551.544,741.219 553.544,742.886 555.5,744.5C 569.392,759.058 583.725,773.392 598.5,787.5C 598.833,788.167 599.167,788.833 599.5,789.5C 505.289,789.118 406.289,789.118 302.5,789.5C 302.833,788.833 303.167,788.167 303.5,787.5C 327.833,763.833 351.833,739.833 375.5,715.5 Z"/></g>
<g><path style="opacity:1" fill="#18112a" d="M 673.5,715.5 C 746.845,739.281 820.178,763.281 893.5,787.5C 894.167,787.5 894.5,787.833 894.5,788.5C 892.5,788.5 890.5,788.5 888.5,788.5C 877.157,786.394 865.991,784.394 855,782.5C 825.158,779.129 794.658,774.796 763.5,769.5C 762.914,769.709 762.414,770.043 762,770.5C 720.329,763.645 678.496,757.645 636.5,752.5C 648.5,739.833 660.833,727.5 673.5,715.5 Z"/></g>
<g><path style="opacity:1" fill="#23183d" d="M 599.5,746.5 C 599.171,760.01 599.504,773.344 600.5,786.5C 600.5,787.167 600.833,787.5 601.5,787.5C 601.167,788.167 600.833,788.833 600.5,789.5C 600.167,789.5 599.833,789.5 599.5,789.5C 599.167,788.833 598.833,788.167 598.5,787.5C 598.737,786.209 598.404,785.209 597.5,784.5C 596.976,778.55 595.309,773.05 592.5,768C 593.022,767.439 593.355,766.772 593.5,766C 591.269,758.92 589.769,751.753 589,744.5C 590,745.833 591,745.833 592,744.5C 594.301,745.867 596.801,746.534 599.5,746.5 Z"/></g>
<g><path style="opacity:1" fill="#17112a" d="M 599.5,746.5 C 602.778,746.27 606.112,746.936 609.5,748.5C 606.186,761.091 603.186,773.758 600.5,786.5C 599.504,773.344 599.171,760.01 599.5,746.5 Z"/></g>
<g><path style="opacity:1" fill="#0c0916" d="M 636.5,752.5 C 678.496,757.645 720.329,763.645 762,770.5C 762.414,770.043 762.914,769.709 763.5,769.5C 794.658,774.796 825.158,779.129 855,782.5C 865.991,784.394 877.157,786.394 888.5,788.5C 792.575,788.683 696.575,789.016 600.5,789.5C 600.833,788.833 601.167,788.167 601.5,787.5C 602.5,787.167 603.167,786.5 603.5,785.5C 607.194,782.473 610.527,779.14 613.5,775.5C 621.086,767.914 628.752,760.248 636.5,752.5 Z"/></g>
<g><path style="opacity:1" fill="#4b3581" d="M 610.5,747.5 C 611.172,748.267 612.005,748.934 613,749.5C 614.398,748.949 615.732,748.616 617,748.5C 617.75,749.126 618.584,749.626 619.5,750C 618.748,750.671 618.414,751.504 618.5,752.5C 613.275,763.446 607.608,774.279 601.5,785C 602.094,785.464 602.761,785.631 603.5,785.5C 603.167,786.5 602.5,787.167 601.5,787.5C 600.833,787.5 600.5,787.167 600.5,786.5C 603.186,773.758 606.186,761.091 609.5,748.5C 609.5,747.833 609.833,747.5 610.5,747.5 Z"/></g>
<g><path style="opacity:1" fill="#f5f5f5" d="M 668.5,864.5 C 687.121,863.277 697.955,871.944 701,890.5C 701.667,899.167 701.667,907.833 701,916.5C 695.461,940.788 681.294,947.955 658.5,938C 652.521,932.877 649.021,926.377 648,918.5C 645.496,904.895 646.496,891.561 651,878.5C 654.67,870.984 660.503,866.317 668.5,864.5 Z"/></g>
<g><path style="opacity:1" fill="#f3f3f3" d="M 354.5,865.5 C 369.167,865.5 383.833,865.5 398.5,865.5C 398.777,868.448 398.444,871.281 397.5,874C 386.505,874.5 375.505,874.667 364.5,874.5C 364.5,882.167 364.5,889.833 364.5,897.5C 375.167,897.5 385.833,897.5 396.5,897.5C 396.777,900.448 396.444,903.281 395.5,906C 385.172,906.5 374.839,906.666 364.5,906.5C 364.5,915.167 364.5,923.833 364.5,932.5C 375.505,932.333 386.505,932.5 397.5,933C 398.444,935.719 398.777,938.552 398.5,941.5C 383.833,941.5 369.167,941.5 354.5,941.5C 354.5,916.167 354.5,890.833 354.5,865.5 Z"/></g>
<g><path style="opacity:1" fill="#f3f3f3" d="M 425.5,865.5 C 429.437,865.207 433.27,865.54 437,866.5C 446.94,886.712 456.606,907.045 466,927.5C 465.732,906.845 465.566,886.178 465.5,865.5C 468.833,865.5 472.167,865.5 475.5,865.5C 475.5,890.833 475.5,916.167 475.5,941.5C 471.445,941.824 467.445,941.491 463.5,940.5C 453.667,920.167 443.833,899.833 434,879.5C 434.428,900.137 434.594,920.804 434.5,941.5C 431.5,941.5 428.5,941.5 425.5,941.5C 425.5,916.167 425.5,890.833 425.5,865.5 Z"/></g>
<g><path style="opacity:1" fill="#f3f3f3" d="M 497.5,865.5 C 515.167,865.5 532.833,865.5 550.5,865.5C 550.5,868.5 550.5,871.5 550.5,874.5C 543.5,874.5 536.5,874.5 529.5,874.5C 529.5,896.833 529.5,919.167 529.5,941.5C 526.167,941.5 522.833,941.5 519.5,941.5C 519.5,919.167 519.5,896.833 519.5,874.5C 512.492,874.666 505.492,874.5 498.5,874C 497.556,871.281 497.223,868.448 497.5,865.5 Z"/></g>
<g><path style="opacity:1" fill="#f7f7f7" d="M 577.5,865.5 C 586.173,865.334 594.84,865.5 603.5,866C 619.928,869.338 625.762,879.171 621,895.5C 620.333,896.833 619.667,898.167 619,899.5C 615.56,902.462 612.06,905.295 608.5,908C 614.7,918.899 621.034,929.733 627.5,940.5C 623.878,941.659 620.211,941.825 616.5,941C 610.54,930.915 604.707,920.748 599,910.5C 595,909.167 591,909.167 587,910.5C 586.5,920.828 586.334,931.161 586.5,941.5C 583.15,941.665 579.817,941.498 576.5,941C 576.598,915.881 576.932,890.714 577.5,865.5 Z"/></g>
<g><path style="opacity:1" fill="#f7f7f7" d="M 725.5,865.5 C 735.172,865.334 744.839,865.5 754.5,866C 770.743,869.99 776.577,880.156 772,896.5C 768.896,904.603 763.062,909.436 754.5,911C 748.175,911.5 741.842,911.666 735.5,911.5C 735.5,921.5 735.5,931.5 735.5,941.5C 732.167,941.5 728.833,941.5 725.5,941.5C 725.5,916.167 725.5,890.833 725.5,865.5 Z"/></g>
<g><path style="opacity:1" fill="#f4f4f4" d="M 793.5,865.5 C 797.226,865.177 800.893,865.511 804.5,866.5C 810.411,878.657 816.578,890.657 823,902.5C 829.754,890.66 836.254,878.66 842.5,866.5C 846.122,865.341 849.789,865.175 853.5,866C 845.46,880.581 837.293,895.081 829,909.5C 828.5,920.161 828.333,930.828 828.5,941.5C 825.167,941.5 821.833,941.5 818.5,941.5C 818.666,931.494 818.5,921.494 818,911.5C 809.554,896.271 801.387,880.938 793.5,865.5 Z"/></g>
<g><path style="opacity:1" fill="#010102" d="M 669.5,873.5 C 680.809,871.645 687.642,876.312 690,887.5C 692.718,901.157 691.718,914.49 687,927.5C 681.266,933.576 674.433,935.076 666.5,932C 661.424,927.682 658.591,922.182 658,915.5C 657.141,905.781 657.474,896.115 659,886.5C 660.562,880.453 664.062,876.12 669.5,873.5 Z"/></g>
<g><path style="opacity:1" fill="#07040b" d="M 587.5,873.5 C 594.821,872.966 601.821,874.133 608.5,877C 613.833,884 613.833,891 608.5,898C 601.519,901.098 594.185,902.264 586.5,901.5C 586.195,892.083 586.528,882.75 587.5,873.5 Z"/></g>
<g><path style="opacity:1" fill="#020104" d="M 735.5,873.5 C 743.486,872.867 751.152,874.034 758.5,877C 764.703,884.551 764.703,892.218 758.5,900C 751.166,903.051 743.499,904.218 735.5,903.5C 735.5,893.5 735.5,883.5 735.5,873.5 Z"/></g>
</svg>
